<?xml version="1.0" encoding="UTF-8"?>
<svg width="100px" height="100px" viewBox="0 0 100 100" version="1.1" xmlns="http://www.w3.org/2000/svg" xmlns:xlink="http://www.w3.org/1999/xlink">
    <!-- Generator: Sketch 41.2 (35397) - http://www.bohemiancoding.com/sketch -->
    <title>未标题-1</title>
    <desc>Created with Sketch.</desc>
    <defs>
        <radialGradient cx="58.1433372%" cy="30.7356809%" fx="58.1433372%" fy="30.7356809%" r="63.5312683%" id="radialGradient-1">
            <stop stop-color="#A9CE52" offset="0%"></stop>
            <stop stop-color="#94C84C" offset="4%"></stop>
            <stop stop-color="#44AF35" offset="21%"></stop>
            <stop stop-color="#00612F" offset="84%"></stop>
            <stop stop-color="#2F9733" offset="93%"></stop>
            <stop stop-color="#44AF35" offset="100%"></stop>
        </radialGradient>
        <circle id="path-2" cx="50" cy="50" r="34.22"></circle>
        <mask id="mask-3" maskContentUnits="userSpaceOnUse" maskUnits="objectBoundingBox" x="-2" y="-2" width="72.44" height="72.44">
            <rect x="13.78" y="13.78" width="72.44" height="72.44" fill="white"></rect>
            <use xlink:href="#path-2" fill="black"></use>
        </mask>
    </defs>
    <g id="Page-1" stroke="none" stroke-width="1" fill="none" fill-rule="evenodd">
        <g id="1登陆" transform="translate(-508.000000, -112.000000)">
            <g id="Group-3" transform="translate(508.000000, 104.000000)">
                <g id="未标题-1" transform="translate(0.000000, 8.000000)">
                    <g id="图层_1">
                        <g id="Oval">
                            <use fill="url(#radialGradient-1)" fill-rule="evenodd" xlink:href="#path-2"></use>
                            <use stroke="#FFFFFF" mask="url(#mask-3)" stroke-width="4" xlink:href="#path-2"></use>
                        </g>
                        <path d="M50,0 C22.3857625,-1.69088438e-15 3.38176876e-15,22.3857625 0,50 C-3.38176876e-15,77.6142375 22.3857625,100 50,100 C77.6142375,100 100,77.6142375 100,50 C100,36.7391755 94.732158,24.0214799 85.3553391,14.6446609 C75.9785201,5.26784202 63.2608245,8.11991313e-16 50,0 Z M50,85.4 C30.4491199,85.4 14.6,69.5508801 14.6,50 C14.6,30.4491199 30.4491199,14.6 50,14.6 C69.5508801,14.6 85.4,30.4491199 85.4,50 C85.4,59.3886637 81.6703679,68.3927923 75.0315801,75.0315801 C68.3927923,81.6703679 59.3886637,85.4 50,85.4 Z" id="Shape" fill="#003C82"></path>
                        <path d="M8.81,42.44 L8,42.28 C7.68666667,42.1866667 7.5,42.3333333 7.44,42.72 L7.44,42.82 L7.2,42.82 L7.59,40.71 L7.83,40.71 L7.83,40.88 C7.77,41.2 7.89,41.38 8.18,41.42 L9.04,41.58 L11.04,40.58 C11.2725763,40.5276229 11.4358248,40.3183299 11.43,40.08 L11.43,40.08 L11.67,40.08 L11.29,42.08 L11,42 L11,41.9 C11.0369321,41.80341 11.0369321,41.69659 11,41.6 C10.94,41.54 10.86,41.53 10.76,41.6 L9.28,42.34 L10.28,43.27 C10.42,43.4 10.54,43.45 10.62,43.43 C10.7,43.41 10.77,43.29 10.8,43.12 L10.8,43.05 L11.04,43.05 L10.77,44.52 L10.53,44.52 C10.6065601,44.2226286 10.4860976,43.9094261 10.23,43.74 L8.81,42.44 Z" id="Shape" fill="#FFFFFF"></path>
                        <path d="M6.72,46.53 L7.18,46.53 C6.94999252,46.1858421 6.82174709,45.7837754 6.81,45.37 C6.86333333,44.9366667 7.15,44.73 7.67,44.75 L8.67,44.84 C8.88,44.84 9,44.84 9.02,44.75 L9.11,44.61 L9.3,44.61 L9.45,45.53 L9.45,45.65 L7.87,45.52 C7.47666667,45.52 7.26333333,45.64 7.23,45.88 C7.23998616,46.1088189 7.3051731,46.3318269 7.42,46.53 L8.54,46.62 C8.75,46.62 8.88,46.62 8.92,46.43 L9,46.2 L9.15,46.2 L9.27,47.36 L9.27,47.48 L7.37,47.32 C7.09,47.32 6.97,47.32 6.99,47.49 C6.98337931,47.5464733 6.98337931,47.6035267 6.99,47.66 L6.8,47.66 L6.69,46.66 L6.72,46.53 Z" id="Shape" fill="#FFFFFF"></path>
                        <path d="M8.19,51.25 L7.19,51.25 C6.93,51.25 6.81,51.35 6.83,51.6 L6.63,51.6 L6.63,50.13 L6.83,50.13 C6.83,50.3766667 7.06666667,50.4866667 7.54,50.46 L8.08,50.46 C8.57,50.46 8.8,50.33 8.78,50.08 C8.75577065,49.83068 8.65835244,49.5940929 8.5,49.4 L7.23,49.4 C6.95,49.4 6.82,49.54 6.82,49.8 L6.82,49.8 L6.62,49.8 L6.62,48.21 L6.82,48.21 L6.82,48.21 C6.82,48.4566667 6.97,48.5666667 7.27,48.54 L8.49,48.54 C8.62333333,48.54 8.72,48.44 8.78,48.24 L8.78,48.12 L8.93,48.12 L9.31,49.19 L9.31,49.29 L8.75,49.29 C9.02936974,49.622597 9.20649721,50.0289482 9.26,50.46 C9.28,50.9933333 8.92333333,51.2566667 8.19,51.25 Z" id="Shape" fill="#FFFFFF"></path>
                        <path d="M8.48,55 L7.48,55.09 C7.22,55.09 7.11,55.22 7.15,55.46 L6.96,55.46 L6.84,54 L7,54 C7,54.2466667 7.24666667,54.3366667 7.74,54.27 L8.28,54.22 C8.77,54.22 8.99,54.03 8.95,53.79 C8.9077458,53.542188 8.79289706,53.3124905 8.62,53.13 L7.35,53.25 C7.07,53.25 6.95,53.42 6.97,53.68 L6.97,53.68 L6.78,53.68 L6.63,52.1 L6.82,52.1 L6.82,52.1 C6.82,52.3466667 6.97666667,52.4466667 7.29,52.4 L8.51,52.29 C8.64333333,52.29 8.73,52.1833333 8.77,51.97 L8.77,51.85 L9,51.85 L9.47,52.85 L9.47,53 L8.91,53.05 C9.21344761,53.3579368 9.42175452,53.7467764 9.51,54.17 C9.55666667,54.6433333 9.21333333,54.92 8.48,55 Z" id="Shape" fill="#FFFFFF"></path>
                        <path d="M8,58.52 L7.87,58.64 C7.63774829,58.4940884 7.46971376,58.2652754 7.4,58 C7.34094574,57.7933403 7.45576288,57.5769541 7.66,57.51 C7.40536895,57.3551856 7.23305049,57.0948748 7.19,56.8 C7.13,56.3466667 7.29,56.08 7.67,56 C7.8561069,55.9583849 8.05113637,55.9945014 8.21,56.1 C8.36423783,56.2312041 8.48723065,56.3951945 8.57,56.58 C8.68126313,56.8265174 8.83722744,57.0502922 9.03,57.24 L9.27,57.24 C9.3778894,57.2279694 9.47588229,57.1715146 9.54040825,57.0842148 C9.6049342,56.996915 9.63015347,56.886671 9.61,56.78 C9.55,56.54 9.37,56.4633333 9.07,56.55 L8.71,55.9 C8.90092063,55.7734035 9.14907937,55.7734035 9.34,55.9 C9.62267862,56.1461401 9.81312844,56.4811907 9.88,56.85 C9.92666667,57.5166667 9.73666667,57.8966667 9.31,57.99 L8.16,58.19 C7.95,58.19 7.86,58.28 7.89,58.36 C7.90249288,58.4264466 7.94243321,58.4845417 8,58.52 L8,58.52 Z M7.89,57.45 L8.78,57.29 C8.67288579,57.2108115 8.58134549,57.1124904 8.51,57 C8.41380326,56.7621802 8.161088,56.6273987 7.91,56.68 C7.65666667,56.74 7.54,56.87 7.56,57.07 C7.61159733,57.2312915 7.7223571,57.3670615 7.87,57.45 L7.89,57.45 Z" id="Shape" fill="#FFFFFF"></path>
                        <path d="M9.89,61.68 L8.94,61.93 C8.68666667,61.9833333 8.59666667,62.1233333 8.67,62.35 L8.48,62.4 L8.11,61 L8.3,60.95 C8.36,61.1833333 8.61666667,61.2333333 9.07,61.1 L9.59,60.96 C10.0633333,60.8333333 10.26,60.6566667 10.18,60.43 C10.097502,60.1954862 9.94798996,59.9903417 9.75,59.84 L8.52,60.16 C8.41020031,60.1718622 8.31192067,60.233466 8.25338832,60.3271177 C8.19485598,60.4207695 8.18254822,60.5361056 8.22,60.64 L8.22,60.64 L8,60.72 L7.6,59.18 L7.79,59.13 L7.79,59.13 C7.83666667,59.37 8.00666667,59.4433333 8.3,59.35 L9.48,59.04 C9.61,59.04 9.68,58.9 9.69,58.68 L9.69,58.56 L9.83,58.56 L10.46,59.51 L10.46,59.61 L9.92,59.75 C10.2672087,60.0026408 10.5344861,60.3497542 10.69,60.75 C10.8966667,61.1966667 10.63,61.5066667 9.89,61.68 Z" id="Shape" fill="#FFFFFF"></path>
                        <path d="M14,66.46 L14.22,66.36 L14.87,67.84 L14.65,67.94 L14.65,67.94 C14.51,67.58 14.27,67.47 13.95,67.63 L12.52,68.26 C12.1040455,68.476035 11.6116859,68.488087 11.1856596,68.2926621 C10.7596333,68.0972372 10.4475925,67.7161942 10.34,67.26 C9.86666667,66.1466667 10.0533333,65.3966667 10.9,65.01 L12.6,64.26 C12.8733333,64.1533333 12.94,63.9633333 12.8,63.69 L12.8,63.58 L13.02,63.48 L13.81,65.27 L13.59,65.37 L13.59,65.28 C13.5619662,65.1633425 13.4804858,65.0667764 13.3702081,65.0195145 C13.2599304,64.9722526 13.1338098,64.9798469 13.03,65.04 L11.33,65.79 C11.0581127,65.8981732 10.8472465,66.1200048 10.7529836,66.3970222 C10.6587208,66.6740396 10.6905202,66.978445 10.84,67.23 C10.9292144,67.5424726 11.1543844,67.7981653 11.4530687,67.9261729 C11.7517531,68.0541805 12.0921996,68.0408948 12.38,67.89 L13.77,67.28 C14.1766667,67.12 14.3033333,66.88 14.15,66.56 L14,66.46 Z" id="Shape" fill="#FFFFFF"></path>
                        <path d="M14.33,71.64 L13.48,72.12 C13.2466667,72.2333333 13.1966667,72.3933333 13.33,72.6 L13.16,72.7 L12.43,71.43 L12.6,71.33 C12.72,71.5433333 12.9833333,71.5266667 13.39,71.28 L13.86,71.01 C14.2866667,70.77 14.43,70.5466667 14.29,70.34 C14.1488643,70.1344172 13.9507517,69.9745368 13.72,69.88 L12.62,70.51 C12.5134344,70.5482342 12.4310635,70.6343724 12.3976298,70.7425401 C12.3641961,70.8507079 12.3835952,70.9683022 12.45,71.06 L12.45,71.06 L12.28,71.16 L11.49,69.78 L11.66,69.68 L11.66,69.68 C11.7666667,69.9 11.95,69.9266667 12.21,69.76 L13.27,69.15 C13.39,69.0966667 13.4266667,68.9633333 13.38,68.75 L13.38,68.63 L13.51,68.56 L14.36,69.31 L14.36,69.39 L13.87,69.67 C14.2712289,69.8287353 14.6183535,70.0994925 14.87,70.45 C15.1566667,70.89 14.9766667,71.2866667 14.33,71.64 Z" id="Shape" fill="#FFFFFF"></path>
                        <path d="M14.48,74.3 L14.32,74.41 L13.45,73.11 L13.61,73 L13.61,73.06 C13.73,73.2733333 13.9166667,73.2733333 14.17,73.06 L15.17,72.4 C15.2299824,72.3725565 15.275295,72.3206805 15.2944246,72.2575529 C15.3135541,72.1944253 15.3046593,72.1261228 15.27,72.07 L15.27,71.87 L15.39,71.79 L16.29,72.48 L16.34,72.56 L14.59,73.72 C14.4826994,73.7681886 14.4057075,73.8657576 14.3837901,73.9813223 C14.3618726,74.0968869 14.3977942,74.2158705 14.48,74.3 L14.48,74.3 Z M17.3,71.49 C17.3817117,71.5824772 17.4197532,71.7056036 17.4044466,71.8280558 C17.3891401,71.950508 17.3219611,72.0604819 17.22,72.13 C16.9980078,72.2549402 16.7170801,72.1847082 16.58,71.97 C16.4998721,71.8712847 16.4631561,71.7443179 16.4782302,71.6180723 C16.4933043,71.4918267 16.5588824,71.377074 16.66,71.3 C16.8876351,71.183964 17.1662234,71.262317 17.3,71.48 L17.3,71.49 Z" id="Shape" fill="#FFFFFF"></path>
                        <path d="M16.39,73.32 L16.55,73.2 L17.55,74.46 L17.39,74.58 L17.26,74.4 C17.16,74.2933333 17.0533333,74.3433333 16.94,74.55 L16.29,75.75 L17.46,75.47 C17.7933333,75.3966667 17.8433333,75.1933333 17.61,74.86 L17.77,74.74 L18.52,75.74 L18.36,75.86 C18.2324814,75.6596199 17.9796161,75.5795459 17.76,75.67 L15.64,76.15 L15.42,75.86 L16.42,73.94 C16.5513989,73.7503408 16.5390963,73.4960869 16.39,73.32 L16.39,73.32 Z" id="Shape" fill="#FFFFFF"></path>
                        <path d="M19,78.9 L19,79.09 C18.4708161,79.1699861 17.9353555,78.9914992 17.56,78.61 C17.3350651,78.3735301 17.2244639,78.050709 17.2571286,77.7259834 C17.2897934,77.4012577 17.4624743,77.1069324 17.73,76.92 C17.9932969,76.6679983 18.3478816,76.5341154 18.7120276,76.5492096 C19.0761736,76.5643037 19.4184618,76.7270725 19.66,77 C19.8625971,77.2079457 19.9710363,77.4898876 19.96,77.78 C19.9378517,77.9894821 19.8543635,78.1877665 19.72,78.35 C19.6473968,78.4283199 19.6111015,78.5335761 19.62,78.64 L19.49,78.75 L18.34,77.45 C17.9666667,77.89 17.9033333,78.2833333 18.15,78.63 C18.29,78.8033333 18.5733333,78.8933333 19,78.9 Z M18.49,77.3 L19.07,77.96 C19.4366667,77.6133333 19.5333333,77.33 19.36,77.11 C19.1866667,76.89 18.9033333,76.95 18.51,77.29 L18.49,77.3 Z" id="Shape" fill="#FFFFFF"></path>
                        <path d="M20.28,81.09 L20.14,81.23 L18.9,80 L19.04,79.86 L19.04,79.86 C19.2133333,80.0533333 19.4033333,80.0333333 19.61,79.8 L20.33,79.07 C20.5033333,78.9166667 20.5466667,78.7666667 20.46,78.62 L20.39,78.45 L20.49,78.35 L21.49,78.79 L21.58,78.88 L21.08,79.39 L21.08,79.39 C21.5533333,79.19 21.83,79.1633333 21.91,79.31 C21.9404036,79.3377797 21.9643048,79.3719243 21.98,79.41 L22.21,79.87 C22.0061027,80.0022389 21.7786152,80.0939129 21.54,80.14 C21.4782938,79.9738406 21.3905288,79.818564 21.28,79.68 C21.2133333,79.5866667 21.0633333,79.5666667 20.83,79.62 L20.11,80.35 C20.0042638,80.4105891 19.9390414,80.5231345 19.9390414,80.645 C19.9390414,80.7668655 20.0042638,80.8794109 20.11,80.94 L20.28,81.09 Z" id="Shape" fill="#FFFFFF"></path>
                        <path d="M21,82 L21.43,81.4 L21.58,81.53 C21.4447393,81.81149 21.5007566,82.1475941 21.72,82.37 C21.8436615,82.4762003 22.0263385,82.4762003 22.15,82.37 C22.2366667,82.27 22.2366667,82.0466667 22.15,81.7 C21.9766667,81.18 21.9766667,80.81 22.15,80.59 C22.4966667,80.2433333 22.9133333,80.26 23.4,80.64 C23.5810525,80.7994333 23.7332795,80.9888714 23.85,81.2 L23.4,81.72 L23.25,81.59 C23.4109475,81.3385996 23.3733704,81.0087566 23.16,80.8 C23.01,80.69 22.89,80.69 22.79,80.8 C22.69,80.91 22.71,81.15 22.84,81.52 C22.97,81.89 23.03,82.42 22.84,82.66 C22.6976899,82.8197391 22.4939363,82.9111012 22.28,82.9111012 C22.0660637,82.9111012 21.8623101,82.8197391 21.72,82.66 C21.5866667,82.54 21.4566667,82.4166667 21.33,82.29 L21.25,82.19 L21.14,82.13 L21,82 Z" id="Shape" fill="#FFFFFF"></path>
                        <path d="M24.11,84.34 L24,84.5 L22.77,83.5 L22.89,83.35 L22.95,83.35 C23.13,83.51 23.31,83.4633333 23.49,83.21 L24.23,82.27 C24.2812386,82.2263013 24.3107519,82.1623422 24.3107519,82.095 C24.3107519,82.0276578 24.2812386,81.9636987 24.23,81.92 L24.12,81.74 L24.21,81.62 L25.28,81.99 L25.36,82.05 L24,83.79 C23.9301466,83.8736602 23.9019542,83.9844621 23.9233287,84.0913343 C23.9447031,84.1982065 24.0133429,84.2896419 24.11,84.34 L24.11,84.34 Z M25.9,80.78 C26.0065643,80.8413366 26.0817735,80.9453577 26.1066218,81.0657764 C26.1314702,81.1861952 26.1035802,81.3114908 26.03,81.41 C25.8448975,81.585242 25.5551025,81.585242 25.37,81.41 C25.2639999,81.3407326 25.1904337,81.2316244 25.1659625,81.1073862 C25.1414913,80.9831479 25.1681857,80.8542914 25.24,80.75 C25.4346754,80.5878788 25.7208353,80.600886 25.9,80.78 Z" id="Shape" fill="#FFFFFF"></path>
                        <path d="M26.53,83.62 L25.66,84.86 C25.5988548,84.9199377 25.5697634,85.0053249 25.5815962,85.0901261 C25.5934289,85.1749273 25.644783,85.2490896 25.72,85.29 C25.8970964,85.3745328 26.1029036,85.3745328 26.28,85.29 L26.28,85.51 C25.9495823,85.6364839 25.5788285,85.5994085 25.28,85.41 C25.1060311,85.3150972 24.985839,85.1449572 24.9545299,84.9492752 C24.9232208,84.7535932 24.9843268,84.5544455 25.12,84.41 L25.98,83.19 L25.7,82.99 L25.8,82.85 C26.2168456,82.907091 26.6406321,82.8188021 27,82.6 L27.14,82.7 L26.69,83.34 L27.35,83.8 L27.09,84.04 L26.53,83.62 Z" id="Shape" fill="#FFFFFF"></path>
                        <path d="M27.48,86.78 L27.66,84.89 C27.72,84.45 27.6433333,84.1833333 27.43,84.09 L27.53,83.92 L28.91,84.76 L28.81,84.93 C28.67,84.84 28.57,84.82 28.51,84.86 C28.45,84.9 28.4,84.96 28.39,85.1 L28.27,86.28 L29.18,85.72 C29.4533333,85.5266667 29.4533333,85.3266667 29.18,85.12 L29.28,84.95 L30.28,85.56 L30.18,85.73 C29.9363155,85.6338499 29.658945,85.6885427 29.47,85.87 L26.82,87.55 C26.6111482,87.7197692 26.3234565,87.7547587 26.08,87.64 C25.9901977,87.5917768 25.9242673,87.5086425 25.897768,87.4102163 C25.8712686,87.3117901 25.8865479,87.2067917 25.94,87.12 C26.0011888,87.0465247 26.075863,86.9854276 26.16,86.94 C26.2844554,86.9222642 26.4112587,86.9469204 26.52,87.01 C26.7792984,87.1176327 27.0762396,87.0795633 27.3,86.91 L27.48,86.78 Z" id="Shape" fill="#FFFFFF"></path>
                        <path d="M32,87.94 C32.1749047,87.5846679 32.4875423,87.3163419 32.8652906,87.1973512 C33.2430389,87.0783605 33.6530201,87.1190615 34,87.31 C34.3529496,87.4276001 34.6428969,87.6836815 34.8032092,88.0193945 C34.9635216,88.3551074 34.9804124,88.741581 34.85,89.09 C34.6718371,89.4422421 34.3568876,89.7059037 33.9787991,89.8193302 C33.6007106,89.9327568 33.1926362,89.8860023 32.85,89.69 C32.4899507,89.5925203 32.1897223,89.3439619 32.026752,89.0084347 C31.8637817,88.6729076 31.8540256,88.2832627 32,87.94 L32,87.94 Z M32.91,87.94 C32.59,88.7933333 32.6566667,89.3366667 33.11,89.57 C33.44,89.7 33.72,89.57 33.94,89.08 C34.2466667,88.2933333 34.1833333,87.7666667 33.75,87.5 C33.39,87.36 33.11,87.5 32.91,87.93 L32.91,87.94 Z" id="Shape" fill="#FFFFFF"></path>
                        <path d="M36.73,88.79 L36.22,90.24 C36.0933333,90.56 36.2066667,90.7733333 36.56,90.88 L36.7,90.88 L36.63,91.06 L34.83,90.43 L34.9,90.25 L35.01,90.25 C35.2366667,90.3433333 35.3933333,90.2433333 35.48,89.95 L36.01,88.45 L35.57,88.3 L35.57,88.19 L36.1,88.19 C36.4142626,87.3592156 37.3238593,86.9197969 38.17,87.19 C38.59,87.37 38.8,87.59 38.8,87.83 C38.8,87.83 38.8,87.83 38.72,87.91 L38.45,88.08 C38.4,88.13 38.35,88.15 38.3,88.13 C38.25,88.11 38.19,88.03 38.1,87.88 C38.0224674,87.6827379 37.8770808,87.5196213 37.69,87.42 C37.37,87.31 37.13,87.42 36.99,87.87 L36.78,88.47 L37.38,88.68 L37.23,88.96 L36.73,88.79 Z" id="Shape" fill="#FFFFFF"></path>
                        <path d="M42.53,89 L41.95,91.8 C41.85,92.1133333 41.9933333,92.3 42.38,92.36 L42.52,92.36 L42.52,92.6 L40.32,92.14 L40.32,91.9 L40.54,91.9 C40.87,91.97 41.07,91.85 41.11,91.54 L41.69,88.74 L40.95,88.59 C40.5833333,88.43 40.32,88.6233333 40.16,89.17 L39.9,89.12 L40.25,88 L40.44,88 C40.4669735,88.0448977 40.5007024,88.0853723 40.54,88.12 C40.5894074,88.149217 40.6435641,88.1695258 40.7,88.18 L43.62,88.78 C43.7261184,88.8229387 43.8475664,88.7994326 43.93,88.72 L44.15,88.72 L44,90 L43.76,90 C43.8266667,89.4333333 43.6533333,89.1466667 43.24,89.14 L42.53,89 Z" id="Shape" fill="#FFFFFF"></path>
                        <path d="M45.78,92.85 L45.78,93.04 L44,92.84 L44,92.65 L44,92.65 C44.2533333,92.6966667 44.3933333,92.5666667 44.42,92.26 L44.54,91.26 C44.58,91.0333333 44.5233333,90.8866667 44.37,90.82 L44.21,90.73 L44.21,90.58 L45.27,90.31 L45.39,90.31 L45.31,91.01 L45.31,91.01 C45.5566667,90.5633333 45.76,90.3733333 45.92,90.44 C45.9594936,90.4309986 46.0005064,90.4309986 46.04,90.44 L46.51,90.67 C46.4278828,90.898631 46.3022327,91.1091798 46.14,91.29 C45.9880356,91.1983083 45.8227228,91.1308337 45.65,91.09 C45.5366667,91.09 45.4066667,91.1666667 45.26,91.32 L45.14,92.32 C45.0967642,92.4317115 45.1155031,92.5579322 45.1893285,92.6522647 C45.2631539,92.7465971 45.3811718,92.7951212 45.5,92.78 L45.78,92.85 Z" id="Shape" fill="#FFFFFF"></path>
                        <path d="M49.4,92.81 L49.49,92.96 C49.2972951,93.1498605 49.0403548,93.2604876 48.77,93.27 C48.51,93.27 48.37,93.15 48.35,92.91 C48.1416259,93.1246207 47.8481147,93.2346874 47.55,93.21 C47.0966667,93.17 46.87,92.9566667 46.87,92.57 C46.8725924,92.3804168 46.9519783,92.1999943 47.09,92.07 C47.2533446,91.9503381 47.4411834,91.8683721 47.64,91.83 C47.9072699,91.7747498 48.1617188,91.6695776 48.39,91.52 L48.39,91.28 C48.4011236,91.1732261 48.3677429,91.0665885 48.2977235,90.9852146 C48.2277042,90.9038408 48.1272387,90.8549274 48.02,90.85 C47.78,90.85 47.66,91.01 47.68,91.32 L46.96,91.53 C46.8948756,91.3120001 46.9656301,91.0761516 47.14,90.93 C47.4295982,90.7172938 47.7807154,90.6049363 48.14,90.61 C48.79,90.71 49.14,90.98 49.14,91.42 L49.08,92.59 C49.08,92.8 49.08,92.9 49.19,92.89 C49.2691497,92.9016727 49.3486784,92.871376 49.4,92.81 Z M48.33,92.68 L48.33,91.78 C48.2345237,91.8730755 48.1226375,91.9476664 48,92 C47.7,92.1 47.55,92.27 47.56,92.52 C47.57,92.77 47.66,92.92 47.86,92.95 C48.0464422,92.9338849 48.2172786,92.8393796 48.33,92.69 L48.33,92.68 Z" id="Shape" fill="#FFFFFF"></path>
                        <path d="M52.14,93.25 L52.14,92.78 C51.8735271,93.0559477 51.5206419,93.2323903 51.14,93.28 C50.4733333,93.28 50.14,92.9066667 50.14,92.16 C50.1094295,91.7638035 50.2450965,91.3727524 50.5144698,91.080615 C50.7838432,90.7884777 51.162629,90.6216012 51.56,90.62 C51.748514,90.6147644 51.9368742,90.6349458 52.12,90.68 L52.12,89.87 C52.12,89.66 51.99,89.54 51.69,89.52 L51.69,89.37 L52.63,89.02 L52.85,89.02 L52.96,92.37 C52.96,92.71 53.04,92.87 53.22,92.83 L53.41,92.83 L53.41,93 L52.41,93.25 L52.14,93.25 Z M52.14,92.52 L52.14,91.13 C51.9748748,90.9674225 51.7517136,90.8774382 51.52,90.88 C51.1,90.88 50.89,91.23 50.89,91.83 C50.89,92.43 51.19,92.83 51.63,92.83 C51.8239755,92.7857361 51.9969189,92.6763229 52.12,92.52 L52.14,92.52 Z" id="Shape" fill="#FFFFFF"></path>
                        <path d="M55.31,92.78 L55.31,92.97 L53.75,93.12 L53.75,92.93 L53.82,92.93 C54.06,92.93 54.16,92.76 54.12,92.46 L54,91.27 C54,91.12 53.92,91.04 53.76,91.02 L53.56,90.97 L53.56,90.82 L54.56,90.35 L54.66,90.35 L54.87,92.44 C54.8732774,92.5475971 54.9245326,92.6480816 55.009712,92.7139021 C55.0948914,92.7797226 55.205056,92.8039715 55.31,92.78 L55.31,92.78 Z M54.15,89 C54.46,89 54.64,89.11 54.68,89.37 C54.6861721,89.6240572 54.4932545,89.8388973 54.24,89.86 C54.1151097,89.8831245 53.9861771,89.8547177 53.8825684,89.7812497 C53.7789596,89.7077817 53.7094964,89.5955078 53.69,89.47 C53.69,89.1966667 53.8433333,89.04 54.15,89 Z" id="Shape" fill="#FFFFFF"></path>
                        <path d="M56.57,90.59 L56.79,92.09 C56.79,92.3 56.93,92.39 57.13,92.36 C57.33,92.33 57.41,92.21 57.54,91.98 L57.67,92.16 C57.5197281,92.4961282 57.2125616,92.7358679 56.85,92.8 C56.6569054,92.8532043 56.4500385,92.8129431 56.2909921,92.6912039 C56.1319457,92.5694646 56.0390633,92.3802881 56.04,92.18 L55.82,90.71 L55.48,90.76 L55.48,90.59 C55.8664572,90.3407859 56.1449263,89.9552133 56.26,89.51 L56.43,89.51 L56.55,90.28 L57.35,90.16 L57.35,90.51 L56.57,90.59 Z" id="Shape" fill="#FFFFFF"></path>
                        <path d="M58,88.39 C58.31,88.39 58.49,88.45 58.56,88.7 C58.5905987,88.9519994 58.4196944,89.184254 58.17,89.23 C58.047962,89.2667678 57.9162244,89.2523952 57.8049858,89.190177 C57.6937472,89.1279588 57.6125473,89.0232307 57.58,88.9 C57.61,88.65 57.75,88.48 58,88.39 Z M59.54,92.07 L59.54,92.26 L58.01,92.57 L58.01,92.38 L58.08,92.38 C58.32,92.38 58.41,92.18 58.33,91.88 L58.09,90.71 C58.09,90.5633333 58,90.49 57.82,90.49 L57.61,90.49 L57.61,90.35 L58.61,89.78 L58.71,89.78 L59.12,91.84 C59.1496562,91.932097 59.2151357,92.0083799 59.3016752,92.0516496 C59.3882147,92.0949193 59.4885287,92.1015332 59.58,92.07 L59.54,92.07 Z" id="Shape" fill="#FFFFFF"></path>
                        <path d="M59.95,90.93 C59.8677466,90.5475809 59.9434901,90.1481512 60.1600346,89.822393 C60.3765791,89.4966347 60.7155533,89.2721848 61.1,89.2 C61.4497325,89.0700064 61.8373553,89.0882779 62.1733092,89.2505927 C62.5092631,89.4129075 62.7644826,89.7052228 62.88,90.06 C63.0266667,90.9 62.6333333,91.47 61.7,91.77 C61.358101,91.9162317 60.969729,91.9078102 60.6344901,91.7468956 C60.2992513,91.5859809 60.0497587,91.2882274 59.95,90.93 Z M60.65,90.36 C60.9366667,91.2266667 61.33,91.61 61.83,91.51 C62.17,91.3966667 62.2833333,91.0966667 62.17,90.61 C61.9166667,89.8033333 61.5366667,89.4333333 61.03,89.5 C60.67,89.6133333 60.5433333,89.8966667 60.65,90.35 L60.65,90.36 Z" id="Shape" fill="#FFFFFF"></path>
                        <path d="M66.1,88.65 L66.44,89.57 C66.52,89.82 66.66,89.89 66.89,89.79 L67,90 L65.63,90.51 L65.56,90.33 C65.7866667,90.2433333 65.81,89.9833333 65.63,89.55 L65.4,89 C65.23,88.54 65.03,88.36 64.81,88.46 C64.5822848,88.5654114 64.3908997,88.7359182 64.26,88.95 L64.7,90.14 C64.7227106,90.2486428 64.7942654,90.3407361 64.8939266,90.3895897 C64.9935879,90.4384432 65.1102122,90.4385946 65.21,90.39 L65.21,90.39 L65.28,90.57 L63.79,91.12 L63.72,90.94 L63.72,90.94 C63.96,90.87 64.01,90.69 63.89,90.41 L63.46,89.26 C63.46,89.13 63.3,89.08 63.08,89.09 L62.96,89.09 L63,89 L63.88,88.28 L63.97,88.28 L64.17,88.81 C64.3908025,88.4398279 64.7137153,88.1412204 65.1,87.95 C65.53,87.7 65.86,88 66.1,88.65 Z" id="Shape" fill="#FFFFFF"></path>
                        <path d="M69.68,88.19 L69.83,88.28 C69.7461968,88.5390973 69.5676097,88.7569735 69.33,88.89 C69.1468934,89.0009695 68.9088742,88.9480764 68.79,88.77 C68.7078616,89.0560317 68.5025971,89.2906197 68.23,89.41 C67.81,89.59 67.51,89.5066667 67.33,89.16 C67.2549595,88.9843454 67.2549595,88.7856546 67.33,88.61 C67.4166368,88.4276371 67.5430734,88.2670284 67.7,88.14 C67.9100143,87.9670984 68.0863022,87.756909 68.22,87.52 L68.12,87.3 C68.0805255,87.1994013 68.0010794,87.1196915 67.9006121,87.0798837 C67.8001449,87.0400759 67.6876641,87.0437393 67.59,87.09 C67.37,87.21 67.35,87.4 67.51,87.67 L66.97,88.19 C66.8052414,88.0286569 66.753929,87.7839365 66.84,87.57 C67.0014761,87.2331255 67.2731255,86.9614761 67.61,86.8 C68.23,86.58 68.6466667,86.6633333 68.86,87.05 L69.36,88.11 C69.45,88.3 69.53,88.37 69.6,88.32 C69.6406879,88.287037 69.6689096,88.2411768 69.68,88.19 L69.68,88.19 Z M68.68,88.58 L68.3,87.76 C68.2519659,87.8742293 68.1842742,87.9791514 68.1,88.07 C67.8977463,88.2252744 67.8347268,88.5025604 67.95,88.73 C68.08,88.96 68.23,89.04 68.41,88.97 C68.5452199,88.8779508 68.6414393,88.7389671 68.68,88.58 L68.68,88.58 Z" id="Shape" fill="#FFFFFF"></path>
                        <path d="M69.32,84.17 L71,87.28 C71.14,87.54 71.3166667,87.61 71.53,87.49 L71.62,87.66 L70.27,88.4 L70.18,88.23 L70.18,88.23 C70.42,88.12 70.45,87.93 70.29,87.67 L69.05,85.39 C68.96,85.18 68.85,85.1 68.73,85.15 L68.45,85.15 L68.42,85 L69.21,84.21 L69.32,84.17 Z" id="Shape" fill="#FFFFFF"></path>
                        <path d="M76.62,83 L76.84,82.84 C77.0239431,83.2038472 77.1456275,83.5959412 77.2,84 C77.0917677,84.0587482 76.9881382,84.1256059 76.89,84.2 L76.57,84.46 C76.4088733,84.6135386 76.238559,84.757137 76.06,84.89 C75.6297004,85.2598389 75.0680561,85.4398173 74.5029439,85.3889572 C73.9378316,85.3380971 73.4173487,85.0607273 73.06,84.62 C72.4266667,83.5266667 72.67,82.5033333 73.79,81.55 C74.0730489,81.3543979 74.387636,81.2089437 74.72,81.12 L74.91,81.04 C74.9638207,81.0138364 74.9985421,80.9598254 75,80.9 L75.14,80.8 L75.83,81.66 L75.63,81.8 C75.1730036,81.3876268 74.4860773,81.3623412 74,81.74 C73.6508273,81.9960683 73.4265082,82.3880987 73.3826678,82.8188777 C73.3388275,83.2496567 73.4795719,83.6788396 73.77,84 C74.0064192,84.3823595 74.3878069,84.6524831 74.8269574,84.7486062 C75.266108,84.8447293 75.7254668,84.7586317 76.1,84.51 C76.5691494,84.1628017 76.7758947,83.5624452 76.62,83 Z" id="Shape" fill="#FFFFFF"></path>
                        <path d="M77.6,81.12 L78.45,82.07 C78.6566667,82.3233333 78.84,82.3566667 79,82.17 L79,82.17 L79.13,82.32 L78,83.34 L77.87,83.19 L77.94,83.13 C78.1533333,82.9833333 78.1366667,82.7933333 77.89,82.56 L76.07,80.56 C76.0391777,80.5056266 75.9866827,80.4669297 75.9256246,80.4535733 C75.8645665,80.4402168 75.8007093,80.4534616 75.75,80.49 L75.56,80.57 L75.46,80.46 L76.01,79.57 L76.12,79.47 L77.47,80.98 C77.5382779,80.5703333 77.7221582,80.188695 78,79.88 C78.34,79.58 78.7533333,79.7 79.24,80.24 L79.79,80.86 C80.0166667,81.14 80.1966667,81.1966667 80.33,81.03 L80.33,81.03 L80.46,81.18 L79.37,82.18 L79.24,82.03 L79.24,82.03 C79.4466667,81.89 79.4233333,81.7033333 79.17,81.47 L78.53,80.76 C78.29,80.5133333 78.0666667,80.4733333 77.86,80.64 C77.737608,80.7779006 77.6486395,80.9421502 77.6,81.12 L77.6,81.12 Z" id="Shape" fill="#FFFFFF"></path>
                        <path d="M78.4,77.34 C78.4726745,77.2409726 78.5842299,77.1777526 78.7065269,77.1662873 C78.8288239,77.154822 78.950186,77.1962058 79.04,77.28 C79.215242,77.4651025 79.215242,77.7548975 79.04,77.94 C78.9599883,78.0381433 78.8437604,78.0998498 78.7176398,78.1111441 C78.5915191,78.1224385 78.4661767,78.0823652 78.37,78 C78.2078788,77.8053246 78.220886,77.5191647 78.4,77.34 Z M81.74,79.52 L81.88,79.66 L80.79,80.78 L80.65,80.64 L80.7,80.59 C80.88,80.43 80.8566667,80.2466667 80.63,80.04 L79.77,79.2 C79.7263013,79.1487614 79.6623422,79.1192481 79.595,79.1192481 C79.5276578,79.1192481 79.4636987,79.1487614 79.42,79.2 L79.23,79.29 L79.13,79.19 L79.62,78.19 L79.69,78.12 L81.19,79.59 C81.2682677,79.6632551 81.3751107,79.6978181 81.4814543,79.6842834 C81.5877978,79.6707488 81.682577,79.6105248 81.74,79.52 L81.74,79.52 Z" id="Shape" fill="#FFFFFF"></path>
                        <path d="M83,76 L83.74,76.64 C83.9266667,76.82 84.0933333,76.82 84.24,76.64 L84.39,76.77 L83.39,77.88 L83.24,77.75 C83.4,77.5633333 83.2966667,77.3233333 82.93,77.03 L82.52,76.68 C82.1466667,76.36 81.8866667,76.3 81.74,76.5 C81.5941469,76.7015299 81.5106936,76.9414582 81.5,77.19 L82.5,78.02 C82.5681643,78.1083266 82.6734296,78.1600568 82.785,78.1600568 C82.8965704,78.1600568 83.0018357,78.1083266 83.07,78.02 L83.07,78.02 L83.22,78.15 L82.22,79.36 L82.07,79.23 L82.07,79.23 C82.24,79.06 82.2,78.87 81.96,78.68 L81.03,77.88 C80.9433333,77.78 80.8066667,77.78 80.62,77.88 L80.52,77.96 L80.41,77.86 L80.83,76.81 L80.89,76.74 L81.32,77.11 C81.330982,76.6775625 81.4663878,76.2574575 81.71,75.9 C82.03,75.5133333 82.46,75.5466667 83,76 Z" id="Shape" fill="#FFFFFF"></path>
                        <path d="M85.48,73.86 L85.66,73.86 C85.8534908,74.3596579 85.7939063,74.9219869 85.5,75.37 C85.3177451,75.6385851 85.0279348,75.8148937 84.7056266,75.8532637 C84.3833185,75.8916337 84.0602163,75.7882909 83.82,75.57 C83.5144364,75.3675227 83.3051589,75.0487077 83.2409172,74.687821 C83.1766756,74.3269343 83.2630789,73.9554851 83.48,73.66 C83.6402871,73.4170691 83.8934102,73.2507311 84.18,73.2 C84.3897135,73.1762766 84.6017824,73.2145186 84.79,73.31 C84.8855143,73.3523591 84.9944857,73.3523591 85.09,73.31 L85.23,73.41 L84.23,74.81 C84.7366667,75.0766667 85.1366667,75.0533333 85.43,74.74 C85.5736158,74.4678314 85.5918628,74.1466844 85.48,73.86 L85.48,73.86 Z M84,74.71 L84.52,74 C84.1,73.7133333 83.8033333,73.68 83.63,73.9 C83.4566667,74.12 83.58,74.39 84,74.71 Z" id="Shape" fill="#FFFFFF"></path>
                        <path d="M86.72,73.54 L86.06,73.21 L86.16,73.04 C86.4599705,73.1337421 86.7862688,73.024976 86.97,72.77 C87.0557868,72.6270376 87.0214624,72.4425439 86.89,72.34 C86.7833333,72.2733333 86.5633333,72.3166667 86.23,72.47 C85.7433333,72.7233333 85.3766667,72.7733333 85.13,72.62 C84.7366667,72.3333333 84.69,71.92 84.99,71.38 C85.1185247,71.177192 85.2808778,70.9979272 85.47,70.85 L86.05,71.21 L85.95,71.38 C85.6760697,71.25776 85.3539411,71.3456133 85.18,71.59 C85.1,71.75 85.11,71.87 85.18,71.96 C85.25,72.05 85.54,71.96 85.89,71.8 C86.24,71.64 86.75,71.47 87.03,71.65 C87.2150992,71.7613481 87.3432021,71.9470973 87.3815059,72.1596836 C87.4198098,72.37227 87.3645949,72.5910493 87.23,72.76 C87.1366667,72.9133333 87.0333333,73.06 86.92,73.2 L86.83,73.29 C86.8238093,73.3297605 86.8238093,73.3702395 86.83,73.41 L86.72,73.54 Z" id="Shape" fill="#FFFFFF"></path>
                        <path d="M88.39,69 L88.57,68.93 C88.8155935,69.4069054 88.8155935,69.9730946 88.57,70.45 C88.4248285,70.740627 88.1606189,70.9539008 87.8459079,71.0344975 C87.5311969,71.1150942 87.1969968,71.0550717 86.93,70.87 C86.6011779,70.7028277 86.3558123,70.4074978 86.2517275,70.0536096 C86.1476427,69.6997213 86.1940454,69.3185772 86.38,69 C86.5057469,68.7380725 86.7334969,68.5392432 87.01,68.45 C87.2122249,68.3894041 87.4277751,68.3894041 87.63,68.45 C87.7286355,68.4940653 87.8413645,68.4940653 87.94,68.45 L88.09,68.53 L87.27,70.06 C87.81,70.26 88.2033333,70.1833333 88.45,69.83 C88.5439768,69.5567215 88.5223045,69.2569208 88.39,69 L88.39,69 Z M87.06,70 L87.48,69.23 C87.0266667,69.0033333 86.7266667,69.0033333 86.58,69.23 C86.4333333,69.4566667 86.5933333,69.7133333 87.06,70 Z" id="Shape" fill="#FFFFFF"></path>
                        <path d="M91.34,64.22 L88,64.55 L90.05,65.41 C90.4366667,65.63 90.6833333,65.5333333 90.79,65.12 L91.02,65.2 L90.57,66.52 L90.34,66.44 C90.5266667,66.0933333 90.3766667,65.8533333 89.89,65.72 L87.79,64.84 C87.4966667,64.6866667 87.3033333,64.7733333 87.21,65.1 L86.95,65 L87.38,63.75 L90.25,63.45 L88.16,61.45 L88.6,60.18 L88.83,60.26 C88.6566667,60.6133333 88.7566667,60.8033333 89.13,60.83 L91.37,61.45 C91.77,61.64 92.02,61.54 92.12,61.14 L92.35,61.22 L91.71,63.07 L91.48,62.99 L91.48,62.9 C91.62,62.5866667 91.5433333,62.3866667 91.25,62.3 L91,62.29 L88.85,61.7 L91.4,64.05 L91.34,64.22 Z" id="Shape" fill="#FFFFFF"></path>
                        <path d="M92.15,58.09 L92.3,57.97 C92.6737317,58.3532722 92.8410716,58.8924785 92.75,59.42 C92.6871334,59.7387667 92.4889394,60.0145234 92.2068413,60.1757223 C91.9247432,60.3369212 91.5865466,60.3676734 91.28,60.26 C90.9206392,60.1930642 90.6042217,59.9822249 90.4040776,59.6763443 C90.2039335,59.3704637 90.1374375,58.9960955 90.22,58.64 C90.2707311,58.3534102 90.4370691,58.1002871 90.68,57.94 C90.8650585,57.8341491 91.0773055,57.7854366 91.29,57.8 C91.3935558,57.8143616 91.4984541,57.7854242 91.58,57.72 L91.75,57.72 L91.37,59.41 C91.9433333,59.4566667 92.3,59.28 92.44,58.88 C92.5,58.7133333 92.4033333,58.45 92.15,58.09 Z M91.15,59.44 L91.34,58.58 C90.8466667,58.4866667 90.56,58.5733333 90.48,58.84 C90.4,59.1066667 90.6233333,59.3066667 91.15,59.44 L91.15,59.44 Z" id="Shape" fill="#FFFFFF"></path>
                        <path d="M93.49,55.33 L93,55.27 C93.2270309,55.5828143 93.3399744,55.9639989 93.32,56.35 C93.2,56.9766667 92.7733333,57.2533333 92.04,57.18 C91.6457242,57.1411456 91.2852375,56.9404604 91.0445042,56.625801 C90.8037708,56.3111417 90.704368,55.9107115 90.77,55.52 C90.7954806,55.3308446 90.8459198,55.1459009 90.92,54.97 L90.12,54.86 C89.91,54.86 89.77,54.93 89.7,55.22 L89.55,55.22 L89.37,54.22 L89.37,54 L92.68,54.47 C93.02,54.53 93.18,54.47 93.17,54.29 C93.1766834,54.2235008 93.1766834,54.1564992 93.17,54.09 L93.36,54.09 L93.43,55.16 L93.49,55.33 Z M92.76,55.23 L91.38,55 C91.1920379,55.1357685 91.0660485,55.3409512 91.03,55.57 C90.99,55.99 91.2666667,56.25 91.86,56.35 C92.4533333,56.45 92.8333333,56.2766667 93,55.83 C93,55.6066044 92.9140659,55.3917692 92.76,55.23 L92.76,55.23 Z" id="Shape" fill="#FFFFFF"></path>
                        <path d="M89.61,52.65 C89.65,52.3433333 89.8,52.19 90.06,52.19 C90.3094648,52.2309531 90.4844062,52.4583769 90.46,52.71 C90.4627564,52.8381291 90.4130708,52.961827 90.3224489,53.0524489 C90.231827,53.1430708 90.1081291,53.1927564 89.98,53.19 C89.74,53.1366667 89.6166667,52.9566667 89.61,52.65 Z M93.61,52.16 L93.81,52.16 L93.7,53.72 L93.5,53.72 L93.5,53.65 C93.5333333,53.41 93.3966667,53.2866667 93.09,53.28 L91.89,53.19 C91.74,53.19 91.65,53.19 91.61,53.39 L91.52,53.58 L91.37,53.58 L91,52.46 L91,52.36 L93.1,52.51 C93.2094203,52.541648 93.327363,52.5196451 93.4180121,52.450673 C93.5086611,52.3817009 93.5613209,52.2738976 93.56,52.16 L93.61,52.16 Z" id="Shape" fill="#FFFFFF"></path>
                        <path d="M93.13,49.1 L93.23,48.93 C93.6423071,49.2213732 93.8733728,49.7062324 93.84,50.21 C93.8716654,50.5494793 93.756195,50.8862344 93.5228761,51.1348529 C93.2895571,51.3834715 92.9608042,51.5200691 92.62,51.51 C91.74,51.4166667 91.27,50.8633333 91.21,49.85 C91.21,49.2766667 91.3866667,48.97 91.74,48.93 C91.94,48.93 92.04,49.04 92.05,49.25 C92.0271688,49.4469373 91.9170176,49.6231792 91.75,49.73 C91.6169814,49.8204798 91.526678,49.9613532 91.5,50.12 C91.5,50.46 91.8066667,50.6433333 92.42,50.67 C93.14,50.67 93.5266667,50.4166667 93.58,49.91 C93.5593298,49.5860994 93.3940898,49.2886675 93.13,49.1 L93.13,49.1 Z" id="Shape" fill="#FFFFFF"></path>
                        <path d="M89.67,47.82 C89.67,47.5133333 89.8,47.3433333 90.06,47.31 C90.3134309,47.3205181 90.5149338,47.5264016 90.52,47.78 C90.5368866,47.9063887 90.5016955,48.0342143 90.4225002,48.1341511 C90.343305,48.234088 90.2269033,48.297558 90.1,48.31 C89.8666667,48.29 89.7233333,48.1266667 89.67,47.82 Z M93.54,46.82 L93.74,46.82 L93.81,48.38 L93.61,48.38 L93.61,48.31 C93.61,48.07 93.46,47.96 93.15,47.99 L91.95,48.05 C91.8,48.05 91.72,48.12 91.69,48.28 L91.63,48.48 L91.48,48.48 L91.06,47.42 L91.06,47.32 L93.16,47.22 C93.2588935,47.2255027 93.3556854,47.1900177 93.4275885,47.121899 C93.4994916,47.0537803 93.540153,46.9590464 93.54,46.86 L93.54,46.82 Z" id="Shape" fill="#FFFFFF"></path>
                        <path d="M91.86,43.57 L92.86,43.46 C93.12,43.46 93.23,43.3333333 93.19,43.08 L93.38,43.08 L93.55,44.54 L93.36,44.54 C93.36,44.3 93.1133333,44.2133333 92.62,44.28 L92.09,44.34 C91.6,44.4 91.38,44.54 91.43,44.78 C91.4763592,45.0255921 91.594709,45.2518492 91.77,45.43 L93,45.28 C93.27,45.28 93.4,45.1 93.37,44.84 L93.37,44.84 L93.56,44.84 L93.74,46.42 L93.55,46.42 L93.55,46.42 C93.55,46.18 93.38,46.08 93.07,46.13 L91.86,46.27 C91.73,46.27 91.64,46.38 91.6,46.59 L91.6,46.71 L91.45,46.71 L90.96,45.71 L90.96,45.61 L91.52,45.55 C91.2109184,45.2472996 90.9956563,44.8619109 90.9,44.44 C90.8133333,43.9266667 91.1333333,43.6366667 91.86,43.57 Z" id="Shape" fill="#FFFFFF"></path>
                        <path d="M91.94,40.24 L92.03,40.07 C92.5299959,40.2686336 92.9027196,40.6972659 93.03,41.22 C93.103781,41.5372598 93.0357908,41.870922 92.8437516,42.1340158 C92.6517124,42.3971095 92.3546516,42.563567 92.03,42.59 C91.6810357,42.6769752 91.311757,42.6200261 91.0052088,42.4319597 C90.6986606,42.2438933 90.4805764,41.9404971 90.4,41.59 C90.3329835,41.3090089 90.3835492,41.0128382 90.54,40.77 C90.6663505,40.5998756 90.8403715,40.4711 91.04,40.4 C91.18,40.34 91.26,40.27 91.28,40.2 L91.45,40.2 L91.79,41.9 C92.33,41.7066667 92.5833333,41.4 92.55,40.98 C92.5166667,40.7133333 92.3133333,40.4666667 91.94,40.24 Z M91.57,41.88 L91.39,41 C90.8966667,41.1133333 90.67,41.3066667 90.71,41.58 C90.84,41.9 91.12,42 91.57,41.88 Z" id="Shape" fill="#FFFFFF"></path>
                        <path d="M41,4 C42,3.9 43,3.34 44,3.56 L44.36,3.56 C44.6214025,3.56980514 44.8593907,3.71335357 44.99,3.94 C45.06,4.33 44.7,4.49 44.51,4.68 C44.4241257,4.77742758 44.3304849,4.86772406 44.23,4.95 C44.1,5.04 43.97,5.15 43.86,5.24 C43.7736794,5.31460659 43.6835591,5.38470015 43.59,5.45 C43.47,5.54 43.32,5.45 43.21,5.58 C43.0102357,5.76226871 42.7998685,5.9325659 42.58,6.09 C42.58,6.49 42.91,6.51 42.83,6.97 C42.65,7.66 41.95,7.71 41.83,8.49 C41.8149804,8.71307184 41.8421203,8.93697656 41.91,9.15 L41.91,9.5 C41.91,9.62 42.02,9.62 42.04,9.75 L42.04,11.33 C42.04,11.91 42.19,12.63 41.88,12.91 C41.57,13.19 41.39,12.84 41.24,12.66 C41.1953257,12.5755681 41.1552668,12.4887738 41.12,12.4 C41.12,12.4 40.86,11.54 40.74,11.02 C40.62,10.5 40.54,10.09 40.48,9.75 C40.42,9.24 41.04,8.85 40.6,8.49 C40.24,8.4 40.07,8.73 39.97,9.12 C39.97,9.3 39.79,9.3 39.6,9.37 C38.76,9.37 38.27,8.76 37.83,8.37 C37.2750074,7.98969164 36.8355811,7.46376408 36.56,6.85 C36.5631351,6.65169975 36.6594641,6.46645182 36.82,6.35 C36.8995458,6.2997422 36.9831732,6.25625595 37.07,6.22 L37.33,6.09 C37.46,5.99 38.24,5.53 38.33,5.48 C38.61,5.33 38.84,5.34 39.09,5.21 C39.3290128,5.07792401 39.5507076,4.91669143 39.75,4.73 C39.82,4.03 39.62,3.09 40.22,2.94 C40.82,2.79 41.14,3.28 41,4 Z M41.87,4.65 C41.5881834,4.77163146 41.367972,5.00267296 41.26,5.29 C41.2624306,5.39004937 41.2936807,5.48727197 41.35,5.57 C41.52,5.64 41.49,5.63 41.78,5.57 C41.8371432,5.47370676 41.9117535,5.3889223 42,5.32 C42.09,5.22 42.35,5.16 42.39,5.08 C42.43,5 42.39,4.67 42.24,4.5 C42.09,4.33 42,4.56 41.9,4.62 L41.87,4.65 Z M38.87,6.31 C38.51,6.57 38.21,6.64 38.07,6.93 C38.1827598,7.12354618 38.3495889,7.27994846 38.55,7.38 C38.6494311,7.39508534 38.7505689,7.39508534 38.85,7.38 C39.1426275,7.38167492 39.4299709,7.30204963 39.68,7.15 C39.68,7.08 39.83,7.01 39.85,6.93 C39.8698838,6.59285121 39.8326944,6.25476518 39.74,5.93 C39.24,6.12 39.1,6.09 38.87,6.28 L38.87,6.31 Z" id="Shape" fill="#FFFFFF"></path>
                        <path d="M62.39,5 C62.09,5.3 61.56,5 61,5 C60.44,5 59.9,5.13 59.61,4.88 C59.52,4.81 59.61,4.53 59.35,4.62 C59.2,4.44 58.87,4.43 58.72,4.24 C58.82,3.92 59.48,3.94 59.98,3.86 C60.4751612,3.72808524 60.9896297,3.68408464 61.5,3.73 C61.44,3.73 61.63,3.86 61.63,3.86 C61.63,3.86 62.01,4 62.14,4.24 C62.3017718,4.46043643 62.389317,4.72657384 62.39,5 L62.39,5 Z" id="Shape" fill="#FFFFFF"></path>
                        <path d="M56.08,5.36 C56.51,5.31 56.42,5.61 56.71,5.87 C56.71,6.7 56.71,7.51 57.09,7.87 C57.5201236,7.77971452 57.9416791,7.65257875 58.35,7.49 C58.5263275,7.416349 58.6968163,7.32943316 58.86,7.23 C59.0375515,7.11379677 59.2078663,6.98689552 59.37,6.85 C59.52,6.32 58.84,6.63 58.74,6.35 C58.74,5.63 59.29,5.55 59.74,5.35 C60.11,5.28 60.15,5.69 60.37,5.86 C60.59,6.03 60.64,5.86 60.62,5.99 C61.08,5.99 61.23,6.23 61.62,6.25 C61.54,6.76 60.86,6.67 60.74,7.13 C60.62,7.59 61.36,7.43 61.25,8.01 C60.56,8.08 60.46,8.19 59.86,8.26 C59.6339744,8.40918967 59.4229826,8.57999249 59.23,8.77 C59.06,8.97 59.02,9.21 58.85,9.4 C58.68,9.59 58.51,9.74 58.34,9.9 C58.17,10.06 58.05,10.51 57.83,10.15 C57.22,10.05 57.83,9.3 57.71,8.89 C57.59,8.48 56.94,8.77 56.83,8.89 C56.878576,9.48572659 57.0972463,10.0549636 57.46,10.53 C57.83,10.53 58.04,10.73 58.46,10.78 C59.0129099,10.7698715 59.5654983,10.8134087 60.11,10.91 L60.61,11.04 C60.61,11.04 61.83,11.59 61.61,12.04 C60.76,11.97 60.01,12.13 59.33,12.04 C59.07,12.04 58.4,11.8 58.33,11.78 C57.6292038,11.6276857 56.9550962,11.3715248 56.33,11.02 C55.43,11.02 54.79,10.88 54.68,10.14 C54.9909745,9.96089747 55.3285602,9.83261491 55.68,9.76 C55.68,9.61 55.68,9.53 55.8,9.51 C55.8256231,9.08631769 55.7851385,8.66122882 55.68,8.25 C55.68,8.14 55.45,7.96 55.42,7.74 C55.3462343,6.89307481 55.5805892,6.04797708 56.08,5.36 L56.08,5.36 Z" id="Shape" fill="#FFFFFF"></path>
                        <path d="M59.86,9 C60.01,9.16 60.29,9.13 60.49,9.25 C60.69,9.37 60.75,9.54 60.87,9.63 C60.99,9.72 61.09,9.63 61.12,9.63 C61.19896,9.72099422 61.2859804,9.80466774 61.38,9.88 C61.51,10.01 61.75,10.06 61.63,10.39 C61.1,10.8 60.72,10.17 60.12,10.26 C60.06,10.15 59.98,10.26 59.86,10.01 C59.79,9.48 59.65,9.23 59.86,9 Z" id="Shape" fill="#FFFFFF"></path>
                        <path d="M77.18,10.79 C77.73,10.79 77.62,11.37 77.81,11.68 C78,11.99 78.55,11.95 78.81,12.18 C78.81,12.52 78.81,12.9 78.93,13.07 C79.86,12.93 81.01,13.14 80.45,14.07 C79.63,14.13 79.59,13.41 78.68,13.56 C78.6,13.83 78.83,13.74 78.93,13.81 C79.03,13.88 79.11,14.02 79.18,14.07 C79.3962874,14.1859377 79.6065573,14.3127672 79.81,14.45 C80.14,14.77 80.61,14.95 80.32,15.59 C79.9395745,15.7183409 79.5217634,15.6706958 79.18,15.46 C79.12,15.46 78.91,15.24 78.81,15.18 C78.71,15.12 78.35,15.08 78.29,14.83 L76.42,14.83 C76.16,14.83 76.18,15.17 75.91,15.21 C75.71,16.16 76.48,16.71 76.04,17.48 C75.65,17.8 75.37,17.21 75.04,17.1 C74.73,17.59 75.04,18.74 74.78,19.25 C74.7157804,19.3229757 74.6266226,19.3693378 74.53,19.38 C74.21,19.6 74,19.14 73.77,19.13 C73.36,19.13 72.68,18.23 72.37,17.86 C72.06,17.49 71.62,17.11 71.61,16.6 C71.84,16.49 71.76,16.43 72.12,16.35 C72.23,16.35 72.41,16.35 72.75,16.22 C72.86,16.22 73.63,16.17 73.89,16.09 C74.3040778,15.9746373 74.6846279,15.7620778 75,15.47 L75,14.33 L77.15,14.33 C77.15,14.09 77.15,13.84 76.89,13.82 C76.6690649,13.7674138 76.4568771,13.6832123 76.26,13.57 C76.05,13.31 75.67,13.36 75.12,13.19 C74.4577219,13.0947846 73.7890313,13.0513198 73.12,13.06 C72.53,13.06 71.99,13.2 71.6,12.8 C71.48,12.24 71.96,11.95 72.36,11.8 L72.67,11.67 C73.2315988,11.5278062 73.814097,11.4871668 74.39,11.55 C75.03,11.65 73.99,11.9 74.14,12.31 C74.29,12.72 74.71,12.49 75.03,12.57 L75.41,12.7 C75.69,12.76 76.02,12.7 76.54,12.82 C77.24,12.93 78.11,13.42 78.54,12.82 C78.54,12.3 77.92,12.34 77.4,12.32 C77.09,12 76.64,11.22 77.18,10.79 Z M72.63,16.73 C72.63,17.36 73.12,17.5 73.51,17.73 C73.51,18.01 73.62,18.13 73.89,18.11 C74.27,17.71 74,17.25 73.89,16.72 C73.4712239,16.6708219 73.0479428,16.6741813 72.63,16.73 L72.63,16.73 Z" id="Shape" fill="#FFFFFF"></path>
                        <path d="M28,11.93 C28.1322164,12.3831976 28.216018,12.8491343 28.25,13.32 C28.3,13.57 28.4,13.92 28.47,14.2 C28.59,14.75 28.62,15.2 28.76,15.84 C28.988565,16.5769442 29.0701094,17.3516163 29,18.12 C29,18.28 28.9,18.27 28.87,18.37 C28.0191468,18.9522154 26.9581365,19.1381657 25.96,18.88 C25.691327,18.5994433 25.3966771,18.3449729 25.08,18.12 C24.56,18.06 24.88,18.85 24.45,18.88 C24.02,18.91 23.9,18.52 23.82,18.12 C23.74,17.72 24.09,17.25 23.82,16.98 C23.45,17.03 23.41,17.41 23.19,17.61 C22.89,17.48 22.93,17.03 22.93,16.61 C22.26,16.61 22.27,17.22 21.93,17.49 C22.3958748,18.0361655 22.9077521,18.5413516 23.46,19 C23.6558536,19.1596125 23.7901766,19.3823058 23.84,19.63 C23.2496534,19.6778335 22.6632476,19.4990512 22.2,19.13 C21.68,18.83 21.2,18.4 20.8,18.13 C20.7069986,17.4940742 20.8928839,16.8489428 21.31,16.36 C21.5,16.06 21.93,15.88 21.82,15.36 C21.31,14.86 20.82,15.94 20.31,15.49 C20.13,15.21 20.45,14.97 20.52,14.84 L21.04,14.17 C21.34,13.71 21.04,13.08 21.04,12.17 C21.6203086,11.9994035 22.2279521,11.9416943 22.83,12 C23.32,12 23.83,11.79 24.1,12.09 C23.88,12.88 23.17,13.17 23.1,14.09 C23.7,14.36 23.76,13.83 24.1,13.58 C24.2607191,13.4413315 24.4311543,13.3143406 24.61,13.2 C24.71,13.15 24.92,12.96 25.12,12.82 L25.61,12.48 C25.7750762,12.3692187 25.9489976,12.272224 26.13,12.19 C26.3694886,12.0373533 26.6241894,11.9100029 26.89,11.81 C27.2580984,11.6717464 27.6699537,11.7162713 28,11.93 Z M25.73,13.32 C25.45,13.84 24.73,13.9 24.59,14.58 C24.86,14.95 25.38,14.29 25.48,14.83 C25.4,15.27 24.72,15.6 24.97,15.97 C25.22,16.34 26.04,15.44 26.23,16.22 C26.12,16.65 25.68,16.77 25.72,17.36 C26.1008438,18.0231401 26.8573585,18.3753798 27.61,18.24 C27.7127604,18.0534302 27.8406179,17.881832 27.99,17.73 C27.6842177,16.6346372 27.2618005,15.5752416 26.73,14.57 C26.81,13.99 26.44,13.84 26.47,13.31 L25.73,13.32 Z M23.84,16.1 C23.9684377,15.9169474 24.0154865,15.6889417 23.97,15.47 C23.7864721,15.3426669 23.5589409,15.295716 23.34,15.34 C23.28,15.82 23.44,16.09 23.84,16.1 Z" id="Shape" fill="#FFFFFF"></path>
                        <path d="M87.79,23.81 C88.06,25.17 86.69,24.91 86.91,26.21 C87.51,26.21 87.69,25.72 88.3,25.7 C88.7,25.31 87.57,25.15 88.05,24.7 C88.42,24.5 88.34,24.94 88.55,24.95 C88.76,24.96 88.83,25.15 88.93,25.2 C89.03,25.25 89.1,25.27 89.18,25.33 C89.26,25.39 89.35,25.52 89.43,25.58 C89.51,25.64 90.11,25.8 90.06,26.22 C89.31,26.5 88.77,26.22 88.17,26.47 C87.86,26.62 87.57,26.81 87.28,26.98 C87.28,26.98 87.2,27.21 87.16,27.23 C86.9190718,27.3272144 86.6591599,27.3682531 86.4,27.35 C86.2016254,26.9867939 86.0311347,26.60904 85.89,26.22 C85.2,26 83.89,26.92 83.11,26.22 C83.3,25.38 84.26,25.63 84.88,25.46 C85.12,25.4 85.26,25.27 85.51,25.21 C85.7395283,25.1883859 85.9581047,25.1016492 86.14,24.96 C86.3338505,24.8156524 86.5056524,24.6438505 86.65,24.45 C86.8894132,24.1831188 87.1431188,23.9294132 87.41,23.69 C87.62,23.65 87.63,23.8 87.79,23.81 Z" id="Shape" fill="#FFFFFF"></path>
                        <path d="M11.08,28.23 C11.08,27.72 10.83,27.47 10.83,26.97 C10.42,26.86 10.51,27.14 10.27,27.2 C10.03,27.26 9.65,27.28 9.66,27.13 C9.6629621,26.7905357 9.71689712,26.4534418 9.82,26.13 C9.82,26.04 10.03,25.6 10.08,25.5 C10.13,25.4 10.3,25.18 10.33,25.12 C10.4125624,24.9802136 10.5253076,24.8606353 10.66,24.77 C11.15,24.46 11.57,24.32 12.03,24.77 C12.03,24.9 12.16,24.82 12.18,25.14 C12.2000927,25.310858 12.1723994,25.4839408 12.1,25.64 C12.01,25.95 11.96,26.08 11.85,26.52 C11.85,26.52 11.73,26.89 11.72,26.9 C11.71,26.91 11.59,27.4 11.47,27.78 C11.42,27.86 11.37,28.31 11.08,28.23 Z" id="Shape" fill="#FFFFFF"></path>
                        <path d="M14.62,24.95 C14.76,25.48 14.39,25.89 14.36,26.34 C14.36,26.61 14.16,26.73 14.11,26.97 C14.06,27.21 14,28.16 14,28.23 C14,28.3 14,28.48 14.05,28.64 C14.1,28.8 13.96,29.64 14.23,29.97 L14.38,29.97 C14.44,29.97 14.61,30.08 14.68,30.03 C15.31,29.03 14.44,27.18 15.52,26.81 C16.46,26.92 16.75,27.69 17.29,28.2 C17.697316,28.2957388 18.0836776,28.4651957 18.43,28.7 C18.51,29.24 18.91,29.98 18.43,30.34 C17.37,30.39 17.23,29.51 16.43,29.34 C16.03,29.51 16.18,29.95 16.05,30.34 C16.0088669,30.4215371 15.9818189,30.5094432 15.97,30.6 C15.9345528,30.8543408 15.8776839,31.1052328 15.8,31.35 C15.7392113,31.7265228 15.564745,32.0754554 15.3,32.35 C15.0570997,32.8293161 14.5291931,33.0932694 14,33 C13.93,32.87 13.72,32.77 13.63,32.62 C13.54,32.47 13.38,32.13 13.37,32.12 C13.23,31.7 13.43,31.12 13.12,30.73 C12.95,30.73 12.93,30.73 12.86,30.8 L12.73,30.98 C12.58,31.22 12.51,31.62 12.35,31.87 C12.19,32.12 12.19,32.18 12.14,32.27 C12.09,32.36 12.08,32.48 11.98,32.63 C11.8817842,32.7788707 11.7714069,32.9193509 11.65,33.05 C11.4900496,33.2685629 11.2482861,33.4128994 10.98,33.45 C10.5397783,33.5011386 10.1024944,33.3329525 9.81,33 C9.74,32.78 9.81,32.61 9.94,32.37 C9.97270105,32.2007485 10.0161218,32.0337455 10.07,31.87 C10.07,31.81 10.27,31.46 10.32,31.36 C10.37,31.26 10.61,30.91 10.7,30.73 C10.79,30.55 11.5,28.79 11.58,28.58 C11.58,28.58 11.87,27.96 11.96,27.7 C11.96,27.7 12.29,26.94 12.34,26.82 C12.4129916,26.643368 12.4999331,26.472829 12.6,26.31 L12.83,25.87 C12.92,25.72 12.83,25.57 12.98,25.42 C13.2079134,25.1424618 13.4624618,24.8879134 13.74,24.66 C14.0631229,24.606743 14.391847,24.7150725 14.62,24.95 Z" id="Shape" fill="#FFFFFF"></path>
                        <path d="M88.42,26.71 L89.31,26.71 C89.5429483,27.0283119 89.7534571,27.3624527 89.94,27.71 C90.1109332,27.6884483 90.2721286,27.7944979 90.32,27.96 C91.08,28.1 91.77,27.65 92.09,28.09 C92.09,28.45 92.09,28.73 91.84,28.85 C91.6887504,29.0002214 91.5606829,29.1721015 91.46,29.36 C91.4,29.84 91.71,29.95 91.84,30.24 C91.91,30.7 91.69,30.85 91.59,31.12 C91.15,31.05 91.05,30.54 90.83,30.24 C90.61,29.94 90.45,29.53 90.07,29.36 C89.55,29.43 89.69,30.16 89.31,30.36 C88.55,30.36 88.76,29.36 88.17,29.22 C87.83,29.56 88.31,30.71 87.66,30.74 C87.24,30.74 87.15,30.32 87.03,29.98 C86.8355148,29.7397179 86.6023154,29.5335561 86.34,29.37 C85.93,29.44 85.87,29.83 85.64,30.11 C85.41,30.39 85.01,30.4 84.88,30.74 C84.75,31.08 85.12,31.17 85.26,31.37 C85.4,31.57 85.5,31.82 85.64,32 C85.78,32.18 86.01,32.34 86.14,32.51 C86.27,32.68 86.14,32.8 86.27,32.89 C86.34138,32.9532251 86.4272473,32.9978761 86.52,33.02 C87.05,32.91 87.62,32.86 88.41,32.77 C88.83,32.72 89.41,32.41 89.55,32.64 C89.69,32.87 88.76,33.58 88.67,33.64 L88.41,33.77 C87.835554,33.9899573 87.2434128,34.1605743 86.64,34.28 C86.2784689,34.4322937 85.8920839,34.5170273 85.5,34.53 C85.3723225,33.8114088 85.2054061,33.1003451 85,32.4 C84.71,31.83 84.11,31.6 83.74,31.14 C83.74,30.14 84.63,29.92 85,29.25 C85.37,28.58 84.45,28.55 84.75,28.37 C84.69,27.97 85.09,28.03 85.12,27.74 C85.83,27.92 86.12,28.55 86.77,28.74 C87.27,28.94 86.77,28.19 87.15,28.24 C87.77,28.16 87.88,28.6 88.29,28.87 C88.36,28.87 88.29,28.87 88.41,29 C88.7332971,28.8925991 89.0045132,28.6677752 89.17,28.37 C89.56,28.28 89.54,28.59 89.93,28.5 C89.77,27.74 88.93,27.67 88.41,27.24 C88.21,27 88.43,27.06 88.42,26.71 Z" id="Shape" fill="#FFFFFF"></path>
                        <path d="M59.81,61.93 L59.81,65.71 C59.81,65.91 59.9,66 60.06,66 L60.53,66 L60.53,66.24 L58.26,66.24 L58.26,66 L58.7,66 C58.771639,66.0031035 58.8411618,65.9752961 58.8909002,65.9236447 C58.9406387,65.8719933 58.9658037,65.801471 58.96,65.73 L58.96,62.82 C58.65,62.82 58.53,62.82 58.24,62.88 L58.24,62.6 C58.6828418,62.4659057 59.0896452,62.2334466 59.43,61.92 L59.81,61.93 Z" id="Shape" fill="#FFFFFF"></path>
                        <path d="M62.33,66.29 L62.17,66.11 C62.9776243,65.8875828 63.5825286,65.2163341 63.72,64.39 C63.5084039,64.5382318 63.258216,64.6216278 63,64.63 C62.6666842,64.6331656 62.3468258,64.4986891 62.1159048,64.2583041 C61.8849838,64.0179191 61.7634562,63.69292 61.78,63.36 C61.774484,62.9773319 61.9247563,62.6088601 62.1963129,62.3391893 C62.4678696,62.0695185 62.8373796,61.9218175 63.22,61.93 C64.22,61.98 64.72,62.58 64.75,63.73 C64.6919873,65.0663141 63.6609444,66.1570041 62.33,66.29 L62.33,66.29 Z M62.7,63.22 C62.6533333,63.96 62.82,64.3233333 63.2,64.31 C63.4090676,64.2951444 63.6098837,64.2224351 63.78,64.1 C63.8173364,63.8617609 63.8373888,63.6211329 63.84,63.38 C63.84,62.57 63.63,62.16 63.23,62.16 C62.83,62.16 62.67,62.5 62.69,63.22 L62.7,63.22 Z" id="Shape" fill="#FFFFFF"></path>
                        <path d="M68.2,61.93 L68.34,62.14 C67.5338283,62.3677732 66.9282276,63.0354868 66.78,63.86 C67.0013845,63.7088558 67.2619965,63.6254599 67.53,63.62 C68.29,63.6533333 68.6866667,64.0866667 68.72,64.92 C68.7416987,65.2993539 68.5976141,65.6694386 68.3251215,65.9342554 C68.0526288,66.1990723 67.6785793,66.3325263 67.3,66.3 C66.3,66.3 65.83,65.69 65.77,64.58 C65.788553,63.2073678 66.8341109,62.0671504 68.2,61.93 Z M67.81,65 C67.81,64.28 67.68,63.92 67.31,63.94 C67.0939354,63.9469061 66.8877702,64.0322158 66.73,64.18 L66.73,64.29 C66.7210769,64.466554 66.7210769,64.643446 66.73,64.82 C66.73,65.66 66.93,66.09 67.31,66.09 C67.69,66.09 67.85,65.74 67.81,65 Z" id="Shape" fill="#FFFFFF"></path>
                        <path d="M69.77,64.12 C69.77,62.74 70.3,62.01 71.25,61.92 C72.19,62.01 72.69,62.74 72.72,64.12 C72.75,65.5 72.19,66.2 71.25,66.29 C70.3,66.22 69.8,65.5 69.77,64.12 Z M70.69,63.19 L70.69,65 C70.69,65.78 70.86,66.15 71.25,66.12 C71.64,66.09 71.82,65.77 71.8,64.9 L71.8,63.35 C71.8,62.54 71.62,62.14 71.25,62.16 C70.88,62.18 70.66,62.47 70.68,63.2 L70.69,63.19 Z" id="Shape" fill="#FFFFFF"></path>
                        <path d="M63.06,24.89 C60.22,25.29 60.24,27.57 61.61,29.44 C63.4145694,31.6439281 65.9208316,33.1618052 68.71,33.74 C65.07,33.83 59.62,32.33 57.06,30.32 C56.19,29.64 55.06,28.32 55.17,27.16 C55.47,24.83 60.21,24.85 63.06,24.89 Z" id="Shape" fill="#FFFFFF"></path>
                        <path d="M37.64,33 C36.56,34.24 33,34.55 32.16,36.17 C33.82,36.46 34.48,35.06 35.95,34.65 C36.4967304,34.5721153 37.0478184,34.5286962 37.6,34.52 C38.8906192,34.1592725 40.199034,33.8655467 41.52,33.64 C43.3818884,33.6106708 45.2289419,33.9753105 46.94,34.71 C45.64,34.89 43.47,34.71 42.52,35.41 C45.34,35.48 49.3,35.04 50.95,36.76 C48.87,37 46.27,36.76 44.67,37.44 C44.19,37.57 44.44,37.95 44.29,38.2 C43.6,38.31 42.97,38.48 42.77,39.09 C43.56,39.72 44.46,38.53 45.68,38.33 C47.73,37.99 51.82,38.18 52.68,39.1 C47.06,39.46 41.16,41.1 39.6,45.41 C37.81,50.41 43.6,53.3 48.2,53.75 C48.8117323,52.8937485 49.3249739,51.9712553 49.73,51 C52.8249304,44.8976434 56.9256274,39.3601812 61.86,34.62 L75,34.62 C66.2655645,39.197424 58.7295219,45.7640575 53,53.79 C53.9,53.63 54.66,53.88 55.2,53.56 C55.7995691,53.0557101 56.3218102,52.466083 56.75,51.81 C60.1069021,47.6401702 64.0910498,44.016991 68.56,41.07 C69.3,40.59 70.83,39.68 70.83,39.68 L76.41,39.68 C68.52,42.46 62.78,47.88 57.56,53.36 C58.36,53.08 59.25,53.23 60.08,52.91 C60.91,52.59 62.66,50.55 63.57,49.74 C65.8684118,47.6102961 68.3857652,45.7298232 71.08,44.13 C72.4853936,43.1766487 74.077134,42.532454 75.75,42.24 C78,42.03 79.56,43.14 78.66,45.4 C78.2164014,46.2982741 77.6171372,47.1108356 76.89,47.8 C73,51.68 66.5,54.5 60.22,56.36 C59.2779154,56.5531253 58.34931,56.8069886 57.44,57.12 C56.7095699,57.5963185 56.0668069,58.1951029 55.54,58.89 C53.91,60.64 49.95,65.46 48.43,67.23 C49.87,64.96 54.36,59.81 56.18,57.5 C55.54,57.66 54.88,57.72 54.18,57.84 C53.9402814,57.8660685 53.7049731,57.9232148 53.48,58.01 C52.66,58.41 51.63,60.12 50.96,61.01 C48.3842297,64.3910836 45.9940411,67.9096013 43.8,71.55 C46.0025429,66.9500902 48.6059343,62.5531025 51.58,58.41 C50.87,58.48 50.41,58.59 49.68,58.66 C45.87,64.08 42.68,70.61 39.81,76.93 C40.99,70.87 43.48,64.55 45.81,59.17 C36.97,59.9 28.21,58.37 23.69,53.86 C21.8377954,52.0571296 20.7890155,49.584748 20.78,47 C20.9221048,44.0697805 22.1903255,41.3076388 24.32,39.29 C27.53,36.08 32.57,34 37.64,33 Z M71.42,45.53 C70.2517721,46.1179403 69.125736,46.786211 68.05,47.53 C66.1165236,48.7776534 64.2992002,50.1967051 62.62,51.77 L62.02,52.42 C66.2640905,51.4534219 70.3189017,49.7909493 74.02,47.5 C75.02,46.8 77.1,45.27 76.61,44.56 C75.85,43.43 73.09,44.7 71.42,45.53 Z" id="Shape" fill="#FFFFFF"></path>
                    </g>
                </g>
            </g>
        </g>
    </g>
</svg>